<?xml version="1.0" encoding="utf-8"?>
<!-- Generator: Adobe Illustrator 19.0.0, SVG Export Plug-In . SVG Version: 6.00 Build 0)  -->
<svg version="1.1"
	 id="svg77032" xmlns:svg="http://www.w3.org/2000/svg" xmlns:rdf="http://www.w3.org/1999/02/22-rdf-syntax-ns#" xmlns:dc="http://purl.org/dc/elements/1.1/" xmlns:cc="http://creativecommons.org/ns#"
	 xmlns="http://www.w3.org/2000/svg" xmlns:xlink="http://www.w3.org/1999/xlink" x="0px" y="0px" viewBox="474 359 487 78"
	 style="enable-background:new 474 359 487 78;" xml:space="preserve">
<style type="text/css">
	.st0{clip-path:url(#SVGID_3_);}
	.st1{fill:#231F20;}
	.st2{clip-path:url(#SVGID_7_);}
</style>
<g id="logo-group">
	<g id="logo-center" transform="translate(0 0)">
		<g>
			<defs>
				<polygon id="SVGID_1_" points="207,14 208,14 207,15 				"/>
			</defs>
			<defs>
				<polygon id="SVGID_2_" points="205,12 204,12 205,11 				"/>
			</defs>
			<use xlink:href="#SVGID_1_"  style="overflow:visible;fill:#231F20;"/>
			<use xlink:href="#SVGID_2_"  style="overflow:visible;fill:#231F20;"/>
			<clipPath id="SVGID_3_">
				<use xlink:href="#SVGID_1_"  style="overflow:visible;"/>
			</clipPath>
			<clipPath id="SVGID_4_" class="st0">
				<use xlink:href="#SVGID_2_"  style="overflow:visible;"/>
			</clipPath>
		</g>
		<g id="slogan" transform="translate(0 0)">
		</g>
		<g id="title" transform="translate(0 0)">
			<path id="path77041" class="st1" d="M528.8,384c-1.9-2.8-4.5-5-7.8-6.5c-3.4-1.5-7.3-2.3-11.9-2.3h-23v11.2h22.2
				c2.9,0,5.1,0.6,6.6,1.9c1.4,1.3,2.2,3.2,2.2,5.5c0,2.4-0.8,4.2-2.2,5.5c-1.5,1.3-3.7,1.9-6.6,1.9h-22.2v24.4h14.3v-13.2h8.8
				c4.5,0,8.5-0.7,11.9-2.2c3.3-1.5,5.9-3.7,7.8-6.5c1.8-2.7,2.7-6,2.7-9.9C531.5,390.1,530.6,386.8,528.8,384z"/>
			<path id="path77043" class="st1" d="M561.5,387.3c-2.2,0.9-4,2.2-5.4,4v-4.7h-13v39h13.7v-17.9c0-3.2,0.8-5.7,2.4-7.3
				c1.7-1.6,4-2.4,6.9-2.4c0.8,0,1.8,0.1,3.1,0.2v-12.3C566.3,385.9,563.7,386.5,561.5,387.3L561.5,387.3z"/>
			<path id="path77045" class="st1" d="M579.8,386.6v39h13.7v-39H579.8z M580.6,380.2c1.5,1.4,3.5,2.1,6,2.1c2.4,0,4.5-0.6,6-2.1
				c1.5-1.4,2.3-3.2,2.3-5.4c0-2-0.8-3.7-2.3-5c-1.6-1.3-3.6-2-6-2c-2.5,0-4.5,0.7-6,2.1c-1.6,1.4-2.3,3.2-2.3,5.2
				C578.3,377.1,579,378.8,580.6,380.2z"/>
			<path id="path77047" class="st1" d="M644.4,390.3c-3-2.9-6.8-4.3-11.7-4.3c-2.5,0-4.8,0.4-6.9,1.3c-2.2,0.9-4,2-5.5,3.6v-4.2h-13
				v39H621v-18.9c0-3,0.6-5.3,2.1-6.9c1.4-1.5,3.3-2.3,5.7-2.3c4.2,0,6.4,2.7,6.4,8v20.1h13.7v-22.3
				C648.8,397.5,647.3,393.1,644.4,390.3L644.4,390.3z"/>
			<path id="path77049" class="st1" d="M689.3,424l-3.4-9.6c-1.2,0.9-2.6,1.2-4.2,1.2c-1.3,0-2.3-0.4-3-1.2
				c-0.7-0.8-1.1-1.9-1.1-3.3v-13h8.9V388h-8.9v-10.2h-13.7V388h-5.7v10.2h5.7v13.1c0,5,1.4,8.7,4.1,11.2c2.7,2.5,6.6,3.7,11.7,3.7
				c1.9,0,3.6-0.1,5.3-0.6C686.7,425.3,688.1,424.8,689.3,424L689.3,424z"/>
			<path id="path77051" class="st1" d="M700.2,425.6h14v-8.5l-14-17.8V425.6z M734.2,375.2v9.1l14,16.8v-26H734.2z M734.2,402.1
				L712,375.2h-11.7v6.7l14,16.8l22.2,26.9h11.7v-5.8L734.2,402.1L734.2,402.1z"/>
			<path id="path77053" class="st1" d="M802.3,409.6c0.1-2.2,0.2-3.2,0.2-3.4c0-4.2-0.9-7.8-2.8-10.8c-1.9-3-4.3-5.4-7.5-7
				c-3.2-1.6-6.7-2.4-10.6-2.4c-4.1,0-7.8,0.9-11,2.6c-3.3,1.7-5.8,4.2-7.7,7.2s-2.7,6.5-2.7,10.3c0,3.9,0.9,7.4,2.8,10.4
				c1.9,3.1,4.6,5.5,8.1,7.2c3.5,1.7,7.4,2.6,12,2.6c7.3,0,12.8-2.1,16.6-6.3l-7.2-7.5c-1.4,1.2-2.8,2.1-4.2,2.6
				c-1.4,0.6-3,0.8-4.8,0.8c-2.5,0-4.6-0.5-6.3-1.6s-2.7-2.7-3.3-4.7H802.3z M776.4,397.5c1.4-1.2,3.2-1.8,5.3-1.8
				c2.1,0,3.8,0.6,5.3,1.8c1.4,1.2,2.3,2.9,2.7,4.9h-16C774.1,400.3,775,398.7,776.4,397.5z"/>
			<path id="path77055" class="st1" d="M837.6,425.6h15.6l-14.9-20l14.4-19h-14.5l-7.2,9.9l-6.9-9.9h-15.4l14.4,19.5l-14.8,19.5
				h14.8l7.5-10.2L837.6,425.6z"/>
			<path id="path77057" class="st1" d="M902.7,386.6H889v18.8c0,3.2-0.7,5.5-2.1,7c-1.4,1.5-3.1,2.2-5.3,2.2s-3.7-0.6-4.8-2
				c-1.2-1.3-1.7-3.5-1.7-6.4v-19.6h-13.7v21.8c0,6,1.4,10.4,4.5,13.4c3,3,7.1,4.5,12.1,4.5c2.2,0,4.4-0.4,6.4-1.2
				c2-0.8,3.7-2,5.2-3.6v4.2h13L902.7,386.6z"/>
			<path id="path77059" class="st1" d="M921,425.2c3.2,0.7,6.3,1.1,9.6,1.1c4,0,7.6-0.5,10.4-1.7c2.9-1.1,5.1-2.6,6.6-4.5
				c1.4-1.9,2.2-4.2,2.2-6.6c0-3-0.8-5.3-2.4-6.9c-1.6-1.7-3.4-2.8-5.5-3.5c-2.2-0.6-4.8-1.2-8-1.7c-2.6-0.4-4.4-0.7-5.5-1.1
				c-1.2-0.4-1.7-1-1.7-1.9c0-0.8,0.5-1.4,1.5-1.9s2.6-0.8,4.8-0.8c4,0,7.8,1,11.2,2.9l4.1-9.3c-1.9-1-4.2-1.9-7-2.4
				c-2.8-0.6-5.6-0.9-8.4-0.9c-4,0-7.4,0.6-10.3,1.7s-5,2.7-6.5,4.6c-1.5,1.9-2.2,4.2-2.2,6.6c0,3,0.8,5.4,2.4,7.1
				c1.6,1.7,3.5,2.9,5.6,3.5c2.2,0.6,4.8,1.2,8,1.5c2.4,0.4,4.2,0.7,5.3,1.1c1.2,0.4,1.7,0.9,1.7,1.8c0,0.9-0.5,1.6-1.4,2
				s-2.5,0.6-4.7,0.6c-2.4,0-4.8-0.3-7.3-0.9c-2.4-0.6-4.6-1.5-6.3-2.7l-4.1,9.4C915.2,423.5,917.8,424.5,921,425.2L921,425.2z"/>
		</g>
		<g>
			<defs>
				<polygon id="SVGID_5_" points="207,14 208,14 207,15 				"/>
			</defs>
			<defs>
				<polygon id="SVGID_6_" points="205,12 204,12 205,11 				"/>
			</defs>
			<use xlink:href="#SVGID_5_"  style="overflow:visible;fill:#231F20;"/>
			<use xlink:href="#SVGID_6_"  style="overflow:visible;fill:#231F20;"/>
			<clipPath id="SVGID_7_">
				<use xlink:href="#SVGID_5_"  style="overflow:visible;"/>
			</clipPath>
			<clipPath id="SVGID_8_" class="st2">
				<use xlink:href="#SVGID_6_"  style="overflow:visible;"/>
			</clipPath>
		</g>
	</g>
</g>
</svg>
